<svg width="84" height="94" viewBox="0 0 84 94" xmlns="http://www.w3.org/2000/svg" xmlns:xlink="http://www.w3.org/1999/xlink"><title>EmptyCart</title><defs><path id="a" d="M83.52 76.032V.208H0v75.824h83.52z"/><path id="c" d="M.537 12.15h11.97V.49H.537z"/></defs><g fill="none" fill-rule="evenodd"><g transform="translate(0 .432)"><mask id="b" fill="#fff"><use xlink:href="#a"/></mask><path d="M13.473 5.725C11.627 2.502 8.204-.256 4.54.275.877.803-1.587 6.055 1.201 8.501c1.042.914 2.465 1.207 3.75 1.718 6.417 2.55 8.972 10.137 10.768 16.83 3.652 13.607 7.302 27.214 10.953 40.822.423 1.575.876 3.21 1.94 4.443 1.504 1.743 3.913 2.34 6.178 2.72 10.056 1.68 20.338.897 30.502.11 2.468-.191 5.156-.478 6.919-2.225.965-.955 1.526-2.237 2.047-3.494a139.52 139.52 0 0 0 9.09-32.815c.185-1.244.341-2.574-.193-3.711-1.211-2.584-4.838-2.485-7.648-2.061a157.88 157.88 0 0 1-34.167 1.41c-3.312-.225-6.667-.565-9.76-1.78-9.53-3.743-14.052-14.438-17.592-24.084" fill="#97D8E8" mask="url(#b)"/></g><g transform="translate(34.364 81.643)"><mask id="d" fill="#fff"><use xlink:href="#c"/></mask><path d="M3.126.797C1.187 2.199.179 4.787.654 7.139c.475 2.352 2.41 4.34 4.739 4.871.872.199 1.803.203 2.642-.104 1.489-.546 2.467-1.959 3.25-3.343.79-1.398 1.504-3.01 1.11-4.569-.381-1.512-1.758-2.61-3.238-3.086C7.677.433 6.09.47 4.535.515" fill="#5974B8" mask="url(#d)"/></g><path d="M70.584 83.152c-1.878-1.482-4.632-1.739-6.75-.628-2.117 1.111-3.482 3.529-3.343 5.925.051.896.304 1.797.831 2.523.934 1.284 2.557 1.839 4.097 2.21 1.556.376 3.295.618 4.676-.193 1.342-.788 2.009-2.422 2.054-3.983.045-1.56-.432-3.083-.904-4.571" fill="#5974B8"/><path d="M52.674 54.471a200.66 200.66 0 0 0 7.116-9.255c1.205-1.666-1.554-3.263-2.748-1.613a187.994 187.994 0 0 1-6.602 8.579 154.024 154.024 0 0 1-7.873-8.887c-1.303-1.589-3.542.684-2.25 2.262 2.573 3.14 5.26 6.168 8.063 9.085a194.02 194.02 0 0 1-5.614 6.397c-1.39 1.508.854 3.775 2.25 2.261a195.177 195.177 0 0 0 5.598-6.381 155.04 155.04 0 0 0 6.422 6.061c1.529 1.36 3.787-.893 2.25-2.26a154.627 154.627 0 0 1-6.612-6.249" fill="#DD403B"/></g></svg>